<svg xmlns="http://www.w3.org/2000/svg" width="60" height="60" viewBox="0 0 60 60">
  <g id="Group_5398" data-name="Group 5398" transform="translate(-517 -1049)">
    <rect id="Rectangle_1848" data-name="Rectangle 1848" width="60" height="60" transform="translate(517 1049)" fill="none"/>
    <path id="Path_2466" data-name="Path 2466" d="M193.957,151.771h-2.893A22.97,22.97,0,0,0,169.1,129.806v-2.893a.956.956,0,0,0-1.912,0v2.893a22.971,22.971,0,0,0-21.966,21.965h-2.892a.956.956,0,0,0,0,1.912h2.892a22.972,22.972,0,0,0,21.966,21.966v2.892a.956.956,0,0,0,1.912,0v-2.892a22.971,22.971,0,0,0,21.965-21.966h2.893a.956.956,0,1,0,0-1.912Zm-4.805,0h-1.771A19.281,19.281,0,0,0,169.1,133.488v-1.77A21.058,21.058,0,0,1,189.152,151.771Zm-7.025-2.557a.956.956,0,0,0-.956.956v1.6h-5.658v-.7a.956.956,0,0,0-1.912,0v.7h-1.918a.956.956,0,0,0,0,1.912H173.6v.7a.956.956,0,0,0,1.912,0v-.7h5.658v1.6a.956.956,0,0,0,1.912,0v-1.6h2.386a17.37,17.37,0,0,1-16.37,16.371v-2.386h1.6a.956.956,0,1,0,0-1.912h-1.6V160.1h.7a.956.956,0,0,0,0-1.912h-.7v-1.918a.956.956,0,0,0-1.912,0v1.918h-.7a.956.956,0,0,0,0,1.912h.7v5.658h-1.6a.956.956,0,1,0,0,1.912h1.6v2.386a17.37,17.37,0,0,1-16.371-16.371H153.2v1.6a.956.956,0,0,0,1.912,0v-1.6h5.658v.7a.956.956,0,0,0,1.912,0v-.7H164.6a.956.956,0,0,0,0-1.912h-1.918v-.7a.956.956,0,0,0-1.912,0v.7h-5.658v-1.6a.956.956,0,1,0-1.912,0v1.6h-2.386A17.37,17.37,0,0,1,167.187,135.4v2.386h-1.6a.956.956,0,1,0,0,1.912h1.6v5.658h-.7a.956.956,0,0,0,0,1.912h.7v1.919a.956.956,0,0,0,1.912,0v-1.919h.7a.956.956,0,0,0,0-1.912h-.7V139.7h1.6a.956.956,0,1,0,0-1.912h-1.6V135.4a17.37,17.37,0,0,1,16.37,16.371h-2.386v-1.6A.956.956,0,0,0,182.127,149.213Zm-14.94-17.5v1.77A19.281,19.281,0,0,0,148.9,151.771h-1.771A21.059,21.059,0,0,1,167.187,131.718Zm-20.054,21.965H148.9a19.281,19.281,0,0,0,18.283,18.283v1.771A21.059,21.059,0,0,1,147.133,153.683ZM169.1,173.737v-1.771a19.281,19.281,0,0,0,18.282-18.283h1.771A21.059,21.059,0,0,1,169.1,173.737Z" transform="translate(378.627 926.043)"/>
  </g>
</svg>
