<svg xmlns="http://www.w3.org/2000/svg" width="60" height="60" viewBox="0 0 60 60">
  <g id="그룹_4959" data-name="그룹 4959" transform="translate(-871 -1049)">
    <rect id="사각형_1843" data-name="사각형 1843" width="60" height="60" transform="translate(871 1049)" fill="none"/>
    <g id="그룹_4952" data-name="그룹 4952" transform="translate(191.02 1569.299)">
      <path id="패스_722" data-name="패스 722" d="M734.021-504.61v37.158a2.344,2.344,0,0,1-2.341,2.342H689.122a2.344,2.344,0,0,1-2.342-2.342V-504.61h-1.8v37.158a4.147,4.147,0,0,0,4.142,4.142H731.68a4.146,4.146,0,0,0,4.141-4.142V-504.61Z"/>
      <path id="패스_723" data-name="패스 723" d="M689.859-470.024a.9.9,0,0,0,.52.166.9.9,0,0,0,.3-.051c.081-.028,8.219-2.8,19.505.024.017,0,.033,0,.05.006s.062.01.094.013a1.074,1.074,0,0,0,.113,0c.032,0,.062-.005.093-.009a1.1,1.1,0,0,0,.114-.025c.017-.005.034-.006.051-.012.082-.028,8.255-2.789,19.507.024a.9.9,0,0,0,.218.027.9.9,0,0,0,.554-.191.9.9,0,0,0,.346-.709v-37.254a.9.9,0,0,0-.56-.833,29.294,29.294,0,0,0-3.489-1.171V-517.4a.9.9,0,0,0-.452-.781.9.9,0,0,0-.9,0l-15.659,9.145c-11.282-4.375-19.931.029-20.3.222a.9.9,0,0,0-.482.8v37.254A.9.9,0,0,0,689.859-470.024Zm37.029-11.544a.9.9,0,0,0,.385-.738v-25.835c.753.216,1.506.457,2.249.741v35.5a41.578,41.578,0,0,0-15.641-.589Zm-15.362-26.118,13.947-8.146v33.057l-13.947,9.74Zm-20.247.251a24.81,24.81,0,0,1,18.222.035v35.5a43.615,43.615,0,0,0-9.515-1.068,35.725,35.725,0,0,0-8.707,1.008Z"/>
    </g>
  </g>
</svg>
