<svg xmlns="http://www.w3.org/2000/svg" width="60" height="60" viewBox="0 0 60 60">
  <g id="그룹_4958" data-name="그룹 4958" transform="translate(-753 -1049)">
    <rect id="사각형_1844" data-name="사각형 1844" width="60" height="60" transform="translate(753 1049)" fill="none"/>
    <g id="그룹_4951" data-name="그룹 4951" transform="translate(226.133 1569.801)">
      <path id="패스_717" data-name="패스 717" d="M531.5-463.808h9v-18h-9Zm1.8-16.2h5.4v14.4h-5.4Z"/>
      <path id="패스_718" data-name="패스 718" d="M559.4-463.808h9V-517.8h-9ZM561.2-516h5.4v50.393h-5.4Z"/>
      <path id="패스_719" data-name="패스 719" d="M573.346-502.5v38.7h9v-38.7Zm7.2,36.9h-5.4v-35.1h5.4Z"/>
      <path id="패스_720" data-name="패스 720" d="M545.451-463.808h9v-30.6h-9Zm1.8-28.8h5.4v27h-5.4Z"/>
      <path id="패스_721" data-name="패스 721" d="M548.15-509.708v1.8h3.677l-20.96,20.96,1.272,1.272,20.96-20.96v3.677h1.8v-6.749H548.15Z"/>
    </g>
  </g>
</svg>
