<svg xmlns="http://www.w3.org/2000/svg" width="60" height="60" viewBox="0 0 60 60">
  <g id="그룹_4963" data-name="그룹 4963" transform="translate(-1343 -1049)">
    <rect id="사각형_1849" data-name="사각형 1849" width="60" height="60" transform="translate(1343 1049)" fill="none"/>
    <g id="그룹_4955" data-name="그룹 4955" transform="translate(-105.957 1569.125)">
      <path id="패스_734" data-name="패스 734" d="M1470.154-470.333a.9.9,0,0,0,.9-.9v-38.693a.9.9,0,0,0-.9-.9h-7.649a.9.9,0,0,0-.9.9v38.693a.9.9,0,0,0,.9.9Zm-6.749-38.693h5.849v36.893h-5.849Z"/>
      <path id="패스_735" data-name="패스 735" d="M1476-503.627h13.048a.9.9,0,0,0,.9-.9v-5.4a.9.9,0,0,0-.9-.9H1476a.9.9,0,0,0-.9.9v5.4A.9.9,0,0,0,1476-503.627Zm.9-5.4h11.248v3.6H1476.9Z"/>
      <path id="패스_736" data-name="패스 736" d="M1475.1-493.729a.9.9,0,0,0,.9.9h13.048a.9.9,0,0,0,.9-.9v-5.4a.9.9,0,0,0-.9-.9H1476a.9.9,0,0,0-.9.9Zm1.8-4.5h11.248v3.6H1476.9Z"/>
      <path id="패스_737" data-name="패스 737" d="M1475.1-482.931a.9.9,0,0,0,.9.9h13.048a.9.9,0,0,0,.9-.9v-5.4a.9.9,0,0,0-.9-.9H1476a.9.9,0,0,0-.9.9Zm1.8-4.5h11.248v3.6H1476.9Z"/>
      <path id="패스_738" data-name="패스 738" d="M1475.1-472.133a.9.9,0,0,0,.9.9h13.048a.9.9,0,0,0,.9-.9v-5.4a.9.9,0,0,0-.9-.9H1476a.9.9,0,0,0-.9.9Zm1.8-4.5h11.248v3.6H1476.9Z"/>
      <path id="패스_739" data-name="패스 739" d="M1503.9-511.726H1497.5a6.466,6.466,0,0,0-6.367-5.4h-30.717a6.47,6.47,0,0,0-6.462,6.463v39.879a.9.9,0,0,0,.9.9.9.9,0,0,0,.9-.9v-39.879a4.669,4.669,0,0,1,4.663-4.663h30.717a4.668,4.668,0,0,1,4.663,4.663v39.879a.9.9,0,0,0,.9.9.9.9,0,0,0,.9-.9V-487.43h6.3a.9.9,0,0,0,.9-.9v-22.5A.9.9,0,0,0,1503.9-511.726Zm-.9,22.5h-5.4v-20.7h5.4Z"/>
      <path id="패스_740" data-name="패스 740" d="M1503.9-466.284h-49.041a.9.9,0,0,0-.9.9.9.9,0,0,0,.9.9H1503.9a.9.9,0,0,0,.9-.9A.9.9,0,0,0,1503.9-466.284Z"/>
    </g>
  </g>
</svg>
